<?xml version="1.0" encoding="UTF-8" standalone="no"?>
<!-- Created with Inkscape (http://www.inkscape.org/) -->

<svg
   xmlns:osb="http://www.openswatchbook.org/uri/2009/osb"
   xmlns:dc="http://purl.org/dc/elements/1.1/"
   xmlns:cc="http://creativecommons.org/ns#"
   xmlns:rdf="http://www.w3.org/1999/02/22-rdf-syntax-ns#"
   xmlns:svg="http://www.w3.org/2000/svg"
   xmlns="http://www.w3.org/2000/svg"
   xmlns:sodipodi="http://sodipodi.sourceforge.net/DTD/sodipodi-0.dtd"
   xmlns:inkscape="http://www.inkscape.org/namespaces/inkscape"
   version="1.1"
   id="svg4731"
   width="499.56"
   height="500.56"
   viewBox="0 0 38.482967 38.560001"
   sodipodi:docname="MineAndGloryIconV13v2svg.svg"
   inkscape:version="0.92.4 (5da689c313, 2019-01-14)">
  <metadata
     id="metadata4737">
    <rdf:RDF>
      <cc:Work
         rdf:about="">
        <dc:format>image/svg+xml</dc:format>
        <dc:type
           rdf:resource="http://purl.org/dc/dcmitype/StillImage" />
        <dc:title></dc:title>
      </cc:Work>
    </rdf:RDF>
  </metadata>
  <defs
     id="defs4735">
    <linearGradient
       id="linearGradient2423"
       osb:paint="solid">
      <stop
         style="stop-color:#000000;stop-opacity:1;"
         offset="0"
         id="stop2421" />
    </linearGradient>
    <linearGradient
       id="linearGradient2413"
       osb:paint="solid">
      <stop
         style="stop-color:#000000;stop-opacity:1;"
         offset="0"
         id="stop2411" />
    </linearGradient>
    <linearGradient
       id="linearGradient2407"
       osb:paint="solid">
      <stop
         style="stop-color:#000000;stop-opacity:1;"
         offset="0"
         id="stop2405" />
    </linearGradient>
  </defs>
  <sodipodi:namedview
     pagecolor="#ffffff"
     bordercolor="#666666"
     borderopacity="1"
     objecttolerance="10"
     gridtolerance="10"
     guidetolerance="10"
     inkscape:pageopacity="0"
     inkscape:pageshadow="2"
     inkscape:window-width="1920"
     inkscape:window-height="1057"
     id="namedview4733"
     showgrid="false"
     inkscape:zoom="1.4142136"
     inkscape:cx="115.6088"
     inkscape:cy="262.07101"
     inkscape:window-x="1912"
     inkscape:window-y="-8"
     inkscape:window-maximized="1"
     inkscape:current-layer="layer12"
     inkscape:pagecheckerboard="true"
     inkscape:showpageshadow="true"
     showborder="true"
     borderlayer="false" />
  <g
     inkscape:groupmode="layer"
     id="layer10"
     inkscape:label="Layer 6">
    <path
       style="fill:#dbdbd9;fill-opacity:1;stroke-width:0.07125958"
       d="M 18.133084,35.687966 C 13.591264,29.909128 9.096532,23.315282 6.3061088,18.337605 5.9331381,17.672282 5.8808628,17.53791 5.9636435,17.457271 6.0173826,17.40494 6.454442,17.107676 6.9349082,16.796701 11.542242,13.814666 15.516176,9.4417974 18.687688,3.8640671 c 0.267952,-0.4712397 0.529895,-0.8568725 0.5821,-0.8569616 0.05223,-8.76e-5 0.31415,0.384647 0.582099,0.854969 3.171513,5.5668729 7.145446,9.9261365 11.752783,12.8923965 0.480467,0.309329 0.917534,0.605093 0.971265,0.657242 0.08278,0.08037 0.0305,0.214918 -0.342464,0.881511 -1.792472,3.203616 -4.677181,7.675892 -7.415433,11.496416 -2.372477,3.310183 -5.377631,7.222136 -5.54825,7.222429 -0.05275,9.9e-5 -0.564266,-0.595759 -1.136704,-1.324103 z"
       id="path4939-2-8-6-8-1"
       inkscape:connector-curvature="0" />
  </g>
  <g
     inkscape:groupmode="layer"
     id="layer9"
     inkscape:label="Layer 5">
    <path
       style="fill:#d00019;fill-opacity:1;stroke:#010000;stroke-width:0.06311945;stroke-opacity:0.43181823"
       d="M 18.264848,33.92346 C 14.2495,28.794995 10.275784,22.943246 7.8088177,18.525777 7.4790808,17.935331 7.4328649,17.816082 7.5060502,17.744519 c 0.047505,-0.04644 0.4339069,-0.31025 0.858679,-0.586227 4.0732658,-2.646425 7.5865538,-6.527155 10.3904338,-11.4771446 0.236893,-0.418205 0.46847,-0.760437 0.514625,-0.760516 0.04618,-7.8e-5 0.277733,0.341357 0.514625,0.758747 2.803881,4.9403556 6.317167,8.8090106 10.390435,11.4414366 0.424774,0.274515 0.811178,0.536993 0.858681,0.583273 0.07318,0.07133 0.02696,0.190731 -0.302768,0.782302 -1.584692,2.843069 -4.135016,6.812018 -6.555858,10.202565 -2.097468,2.937642 -4.754275,6.409328 -4.905115,6.409588 -0.04664,8.9e-5 -0.498857,-0.528709 -1.00494,-1.175083 z"
       id="path4939-2-8-6-8"
       inkscape:connector-curvature="0" />
  </g>
  <g
     inkscape:groupmode="layer"
     id="layer8"
     inkscape:label="Layer 4">
    <path
       style="fill:#e70019;fill-opacity:1;stroke:#fffff9;stroke-width:0.05153374;stroke-miterlimit:4;stroke-dasharray:none;stroke-opacity:1"
       d="M 18.330729,32.889095 C 14.578619,28.141882 10.865409,22.725156 8.560172,18.636084 8.252052,18.089532 8.208866,17.979148 8.2772533,17.912906 c 0.044392,-0.043 0.4054611,-0.287187 0.802386,-0.542647 3.8062317,-2.449688 7.0891977,-6.041923 9.7092617,-10.6239266 0.221362,-0.387115 0.437759,-0.703906 0.480887,-0.703979 0.04315,-7.2e-5 0.259526,0.315981 0.480887,0.702342 2.620065,4.5730856 5.903029,8.1541426 9.709263,10.5908726 0.396927,0.254108 0.757998,0.497073 0.802387,0.539912 0.06838,0.06602 0.0252,0.176552 -0.282919,0.724146 -1.480804,2.631713 -3.863934,6.305608 -6.126071,9.444099 -1.959963,2.719256 -4.442594,5.932856 -4.583547,5.933096 -0.04359,8.2e-5 -0.466154,-0.489404 -0.939059,-1.087726 z"
       id="path4939-2-8-6"
       inkscape:connector-curvature="0" />
  </g>
  <g
     inkscape:groupmode="layer"
     id="layer6"
     inkscape:label="Layer 3">
    <path
       style="fill:#ff0837;fill-opacity:1;stroke:#fffff9;stroke-width:0.05153374;stroke-miterlimit:4;stroke-dasharray:none;stroke-opacity:1"
       d="m 18.540352,30.120646 c -2.914539,-3.7268 -5.79886,-7.979201 -7.589506,-11.189328 -0.23934,-0.429069 -0.272886,-0.515727 -0.219764,-0.567731 0.03448,-0.03375 0.314951,-0.225456 0.623272,-0.426005 2.956578,-1.923128 5.506698,-4.743213 7.541893,-8.3403146 0.171949,-0.303905 0.34004,-0.552601 0.373541,-0.552659 0.03352,-5.6e-5 0.201594,0.248061 0.37354,0.551374 2.035197,3.5901006 4.585314,6.4014106 7.541895,8.3143646 0.308321,0.199489 0.588793,0.390228 0.623273,0.42386 0.05311,0.05183 0.01957,0.138601 -0.219765,0.56849 -1.150247,2.066026 -3.001399,4.950219 -4.758568,7.414092 -1.522445,2.134752 -3.450887,4.657588 -3.560375,4.657777 -0.03385,6.5e-5 -0.362096,-0.384207 -0.729436,-0.85392 z"
       id="path4939-2-8-7"
       inkscape:connector-curvature="0" />
  </g>
  <g
     inkscape:groupmode="layer"
     id="layer5"
     inkscape:label="Layer 2">
    <path
       style="fill:#e50019;fill-opacity:1;stroke:#fffff9;stroke-width:0.05153374;stroke-miterlimit:4;stroke-dasharray:none;stroke-opacity:1;paint-order:normal"
       d="m 18.618212,29.116704 c -2.60344,-3.356761 -5.179889,-7.186934 -6.779402,-10.078323 -0.213793,-0.386467 -0.243758,-0.46452 -0.196306,-0.51136 0.0308,-0.0304 0.281333,-0.20307 0.556744,-0.383706 2.640993,-1.732178 4.918913,-4.272252 6.736871,-7.512192 0.153595,-0.27373 0.303744,-0.497733 0.333669,-0.497785 0.02994,-5e-5 0.180076,0.223431 0.333669,0.496628 1.817958,3.233634 4.095877,5.765804 6.736872,7.488819 0.275411,0.17968 0.525945,0.351481 0.556745,0.381773 0.04745,0.04668 0.01748,0.124839 -0.196307,0.512044 -1.02747,1.860887 -2.681031,4.458703 -4.250638,6.677935 -1.359939,1.922789 -3.08254,4.195129 -3.180341,4.195299 -0.03024,5.9e-5 -0.323446,-0.346058 -0.651576,-0.769132 z"
       id="path4939-2-8"
       inkscape:connector-curvature="0" />
  </g>
  <g
     inkscape:groupmode="layer"
     id="layer4"
     inkscape:label="Layer 1"
     transform="matrix(0.38477322,0,0,0.40212588,11.886182,11.622673)">
    <path
       style="fill:#ff0837;fill-opacity:1;stroke:#fffff9;stroke-width:0.15098327;stroke-miterlimit:4;stroke-dasharray:none;stroke-opacity:1"
       d="M 18.085438,35.336419 C 13.7194,30.175433 9.3986258,24.28658 6.7162001,19.8411 6.357664,19.246907 6.3074132,19.126903 6.3869885,19.054887 6.4386434,19.008153 6.8587931,18.742668 7.3206638,18.464942 11.749681,15.801737 15.569811,11.896399 18.618578,6.9150215 18.876158,6.4941639 19.127964,6.1497608 19.17815,6.149681 c 0.05018,-7.84e-5 0.30199,0.3435222 0.559569,0.7635609 3.048767,4.9716791 6.868896,8.8648681 11.297916,11.5139851 0.461871,0.276257 0.882024,0.540396 0.933675,0.586976 0.07957,0.07175 0.02933,0.191928 -0.329211,0.787257 -1.723095,2.861099 -4.49616,6.855214 -7.128433,10.26726 -2.280657,2.95627 -5.169501,6.449965 -5.333516,6.450233 -0.05071,8.4e-5 -0.542428,-0.53206 -1.092712,-1.182534 z"
       id="path4939-2"
       inkscape:connector-curvature="0"
       sodipodi:nodetypes="ccccccssccssc" />
  </g>
  <g
     inkscape:groupmode="layer"
     id="layer2"
     inkscape:label="Layer 7"
     style="display:inline">
    <path
       style="fill:none;stroke:#ffffff;stroke-width:0.05153374;stroke-linecap:butt;stroke-linejoin:miter;stroke-miterlimit:4;stroke-dasharray:none;stroke-opacity:1"
       d="m 8.2458673,17.960906 c 0.7914141,0.262334 1.6193446,0.378604 2.4608557,0.44055"
       id="path2493"
       inkscape:connector-curvature="0"
       sodipodi:nodetypes="cc" />
    <path
       style="fill:none;stroke:#ffffff;stroke-width:0.05153374;stroke-linecap:butt;stroke-linejoin:miter;stroke-miterlimit:4;stroke-dasharray:none;stroke-opacity:1"
       d="m 30.284809,17.921282 c -0.791414,0.262334 -1.619344,0.378604 -2.460855,0.44055"
       id="path2493-7"
       inkscape:connector-curvature="0"
       sodipodi:nodetypes="cc" />
    <path
       style="fill:none;stroke:#ffffff;stroke-width:0.05153374;stroke-linecap:butt;stroke-linejoin:miter;stroke-miterlimit:4;stroke-dasharray:none;stroke-opacity:1"
       d="m 19.272601,6.0400611 -0.0022,3.0026436"
       id="path2510"
       inkscape:connector-curvature="0" />
    <path
       style="fill:none;stroke:#ffffff;stroke-width:0.05153374;stroke-linecap:butt;stroke-linejoin:miter;stroke-miterlimit:4;stroke-dasharray:none;stroke-opacity:1"
       d="m 19.270765,30.947145 v 3.018772"
       id="path2516"
       inkscape:connector-curvature="0" />
    <path
       style="fill:none;stroke:#ffffff;stroke-width:0.05153374;stroke-linecap:butt;stroke-linejoin:miter;stroke-miterlimit:4;stroke-dasharray:none;stroke-opacity:1"
       d="m 19.269865,10.16224 v 3.934738"
       id="path2518"
       inkscape:connector-curvature="0" />
    <path
       style="fill:none;stroke:#ffffff;stroke-width:0.05153374;stroke-linecap:butt;stroke-linejoin:miter;stroke-miterlimit:4;stroke-dasharray:none;stroke-opacity:1"
       d="M 19.270467,26.274926 V 29.87204"
       id="path2520"
       inkscape:connector-curvature="0" />
    <path
       style="fill:none;stroke:#fffff9;stroke-width:0.05153374;stroke-linecap:butt;stroke-linejoin:miter;stroke-miterlimit:4;stroke-dasharray:none;stroke-opacity:1"
       d="m 24.178959,19.29194 2.746733,-0.763116"
       id="path2522"
       inkscape:connector-curvature="0" />
    <path
       style="fill:none;stroke:#ffffff;stroke-width:0.05153374;stroke-linecap:butt;stroke-linejoin:miter;stroke-miterlimit:4;stroke-dasharray:none;stroke-opacity:1"
       d="M 14.346317,19.309583 11.617648,18.555305"
       id="path2524"
       inkscape:connector-curvature="0" />
  </g>
  <g
     inkscape:groupmode="layer"
     id="layer7"
     inkscape:label="Layer 9" />
  <g
     inkscape:groupmode="layer"
     id="layer3"
     inkscape:label="Layer 8" />
  <g
     inkscape:groupmode="layer"
     id="layer12"
     inkscape:label="Layer 10">
    <rect
       style="opacity:1;fill:#ffffff;fill-opacity:0.49024395;fill-rule:nonzero;stroke:#fff7f9;stroke-width:0.07063274;stroke-miterlimit:4;stroke-dasharray:none;stroke-opacity:0;paint-order:markers stroke fill"
       id="rect855"
       width="54.770973"
       height="4.4121561"
       x="11.78616"
       y="57.815521"
       transform="matrix(0.70710678,-0.70710678,0,1,0,0)" />
  </g>
</svg>
